%
M48
M72
T01C0.0150
T02C0.0200
T03C0.1260
%
T01
X22440Y12255
X22740Y12715
X22555Y13290
X23595Y12675
X23793Y14338
X23565Y15915
X23014Y9480
X23014Y30980
X22440Y33755
X22740Y34215
X22555Y34790
X23595Y34175
X23793Y35838
X23565Y37415
X23014Y52480
X22440Y55255
X22740Y55715
X22555Y56290
X23595Y55675
X23793Y57338
X23565Y58915
X23014Y73980
X22440Y76755
X22740Y77215
X22555Y77790
X23595Y77175
X23793Y78838
X23565Y80415
X44055Y77790
X44240Y77215
X43940Y76755
X45095Y77175
X45293Y78838
X45065Y80415
X44514Y73980
X45065Y58915
X45293Y57338
X45095Y55675
X44240Y55715
X43940Y55255
X44055Y56290
X44514Y52480
X45065Y37415
X45293Y35838
X45095Y34175
X44240Y34215
X43940Y33755
X44055Y34790
X44514Y30980
X45065Y15915
X45293Y14338
X45095Y12675
X44240Y12715
X43940Y12255
X44055Y13290
X44514Y9480
T02
X43445Y6803
X43091Y6450
X42737Y6096
X42384Y5743
X42030Y5389
X41677Y5035
X43590Y12240
X43590Y12740
X43590Y13240
X43590Y13740
X43590Y14240
X43590Y14740
X43445Y20177
X43091Y20530
X42737Y20884
X42384Y21237
X42030Y21591
X41677Y21945
X41677Y26535
X42030Y26889
X42384Y27243
X42737Y27596
X43091Y27950
X43445Y28303
X43590Y33740
X43590Y34240
X43590Y34740
X43590Y35240
X43590Y35740
X43590Y36240
X43445Y41677
X43091Y42030
X42737Y42384
X42384Y42737
X42030Y43091
X41677Y43445
X41677Y48035
X42030Y48389
X42384Y48743
X42737Y49096
X43091Y49450
X43445Y49803
X43590Y55240
X43590Y55740
X43590Y56240
X43590Y56740
X43590Y57240
X43590Y57740
X43445Y63177
X43091Y63530
X42737Y63884
X42384Y64237
X42030Y64591
X41677Y64945
X41677Y69535
X42030Y69889
X42384Y70243
X42737Y70596
X43091Y70950
X43445Y71303
X43590Y76740
X43590Y77240
X43590Y77740
X43590Y78240
X43590Y78740
X43590Y79240
X43445Y84677
X43091Y85030
X42737Y85384
X42384Y85737
X42030Y86091
X41677Y86445
X36240Y86590
X35740Y86590
X35240Y86590
X34740Y86590
X34240Y86590
X33740Y86590
X28303Y86445
X27950Y86091
X27596Y85737
X27243Y85384
X26889Y85030
X26535Y84677
X26390Y79240
X26390Y78740
X26390Y78240
X26390Y77740
X26390Y77240
X26390Y76740
X26535Y71303
X26889Y70950
X27243Y70596
X27596Y70243
X27950Y69889
X28303Y69535
X28303Y64945
X27950Y64591
X27596Y64237
X27243Y63884
X26889Y63530
X26535Y63177
X26390Y57740
X26390Y57240
X26390Y56740
X26390Y56240
X26390Y55740
X26390Y55240
X26535Y49803
X26889Y49450
X27243Y49096
X27596Y48743
X27950Y48389
X28303Y48035
X28303Y43445
X27950Y43091
X27596Y42737
X27243Y42384
X26889Y42030
X26535Y41677
X26390Y36240
X26390Y35740
X26390Y35240
X26390Y34740
X26390Y34240
X26390Y33740
X26535Y28303
X26889Y27950
X27243Y27596
X27596Y27243
X27950Y26889
X28303Y26535
X28303Y21945
X27950Y21591
X27596Y21237
X27243Y20884
X26889Y20530
X26535Y20177
X26390Y14740
X26390Y14240
X26390Y13740
X26390Y13240
X26390Y12740
X26390Y12240
X26535Y6803
X26889Y6450
X27243Y6096
X27596Y5743
X27950Y5389
X28303Y5035
X33740Y4890
X34240Y4890
X34740Y4890
X35240Y4890
X35740Y4890
X36240Y4890
X36240Y22090
X35740Y22090
X35240Y22090
X34740Y22090
X34240Y22090
X33740Y22090
X33740Y26390
X34240Y26390
X34740Y26390
X35240Y26390
X35740Y26390
X36240Y26390
X36240Y43590
X35740Y43590
X35240Y43590
X34740Y43590
X34240Y43590
X33740Y43590
X33740Y47890
X34240Y47890
X34740Y47890
X35240Y47890
X35740Y47890
X36240Y47890
X36240Y65090
X35740Y65090
X35240Y65090
X34740Y65090
X34240Y65090
X33740Y65090
X33740Y69390
X34240Y69390
X34740Y69390
X35240Y69390
X35740Y69390
X36240Y69390
X21945Y71303
X21591Y70950
X21237Y70596
X20884Y70243
X20530Y69889
X20177Y69535
X20177Y64945
X20530Y64591
X20884Y64237
X21237Y63884
X21591Y63530
X21945Y63177
X22090Y57740
X22090Y57240
X22090Y56740
X22090Y56240
X22090Y55740
X22090Y55240
X21945Y49803
X21591Y49450
X21237Y49096
X20884Y48743
X20530Y48389
X20177Y48035
X20177Y43445
X20530Y43091
X20884Y42737
X21237Y42384
X21591Y42030
X21945Y41677
X22090Y36240
X22090Y35740
X22090Y35240
X22090Y34740
X22090Y34240
X22090Y33740
X21945Y28303
X21591Y27950
X21237Y27596
X20884Y27243
X20530Y26889
X20177Y26535
X20177Y21945
X20530Y21591
X20884Y21237
X21237Y20884
X21591Y20530
X21945Y20177
X22090Y14740
X22090Y14240
X22090Y13740
X22090Y13240
X22090Y12740
X22090Y12240
X21945Y6803
X21591Y6450
X21237Y6096
X20884Y5743
X20530Y5389
X20177Y5035
X14740Y4890
X14240Y4890
X13740Y4890
X13240Y4890
X12740Y4890
X12240Y4890
X6803Y5035
X6450Y5389
X6096Y5743
X5743Y6096
X5389Y6450
X5035Y6803
X4890Y12240
X4890Y12740
X4890Y13240
X4890Y13740
X4890Y14240
X4890Y14740
X5035Y20177
X5389Y20530
X5743Y20884
X6096Y21237
X6450Y21591
X6803Y21945
X6803Y26535
X6450Y26889
X6096Y27243
X5743Y27596
X5389Y27950
X5035Y28303
X4890Y33740
X4890Y34240
X4890Y34740
X4890Y35240
X4890Y35740
X4890Y36240
X5035Y41677
X5389Y42030
X5743Y42384
X6096Y42737
X6450Y43091
X6803Y43445
X6803Y48035
X6450Y48389
X6096Y48743
X5743Y49096
X5389Y49450
X5035Y49803
X4890Y55240
X4890Y55740
X4890Y56240
X4890Y56740
X4890Y57240
X4890Y57740
X5035Y63177
X5389Y63530
X5743Y63884
X6096Y64237
X6450Y64591
X6803Y64945
X6803Y69535
X6450Y69889
X6096Y70243
X5743Y70596
X5389Y70950
X5035Y71303
X4890Y76740
X4890Y77240
X4890Y77740
X4890Y78240
X4890Y78740
X4890Y79240
X5035Y84677
X5389Y85030
X5743Y85384
X6096Y85737
X6450Y86091
X6803Y86445
X12240Y86590
X12740Y86590
X13240Y86590
X13740Y86590
X14240Y86590
X14740Y86590
X20177Y86445
X20530Y86091
X20884Y85737
X21237Y85384
X21591Y85030
X21945Y84677
X22090Y79240
X22090Y78740
X22090Y78240
X22090Y77740
X22090Y77240
X22090Y76740
X14740Y69390
X14240Y69390
X13740Y69390
X13240Y69390
X12740Y69390
X12240Y69390
X12240Y65090
X12740Y65090
X13240Y65090
X13740Y65090
X14240Y65090
X14740Y65090
X14740Y47890
X14240Y47890
X13740Y47890
X13240Y47890
X12740Y47890
X12240Y47890
X12240Y43590
X12740Y43590
X13240Y43590
X13740Y43590
X14240Y43590
X14740Y43590
X14740Y26390
X14240Y26390
X13740Y26390
X13240Y26390
X12740Y26390
X12240Y26390
X12240Y22090
X12740Y22090
X13240Y22090
X13740Y22090
X14240Y22090
X14740Y22090
T03
X4990Y4990
X5990Y13490
X4990Y21990
X4990Y26490
X5990Y34990
X4990Y43490
X4990Y47990
X5990Y56490
X4990Y64990
X4990Y69490
X5990Y77990
X4990Y86490
X13490Y85490
X20990Y77990
X21990Y86490
X26490Y86490
X27490Y77990
X26490Y69490
X26490Y64990
X21990Y64990
X21990Y69490
X20990Y56490
X21990Y47990
X21990Y43490
X26490Y43490
X26490Y47990
X27490Y56490
X34990Y48990
X34990Y42490
X42490Y34990
X43490Y43490
X43490Y47990
X42490Y56490
X43490Y64990
X43490Y69490
X42490Y77990
X43490Y86490
X34990Y85490
X34990Y70490
X34990Y63990
X27490Y34990
X26490Y26490
X26490Y21990
X21990Y21990
X21990Y26490
X20990Y34990
X13490Y27490
X13490Y20990
X20990Y13490
X21990Y4990
X26490Y4990
X27490Y13490
X34990Y5990
X42490Y13490
X43490Y4990
X34990Y20990
X34990Y27490
X43490Y26490
X43490Y21990
X13490Y5990
X13490Y42490
X13490Y48990
X13490Y63990
X13490Y70490
M30
